# xmcd CD database file
#
# Track frame offsets:
#	150
#	12460
#	24792
#	45997
#	56954
#	67358
#	83227
#	99315
#	113349
#	125900
#	141885
#	160315
#	177009
#
# Disc length: 2760 seconds
#
# Revision: 0
# Processed by: cddbd v1.5.2PL0 Copyright (c) Steve Scherf et al.
# Submitted via: CDex 1.70beta2
#
DISCID=ab0ac60d
DTITLE=BOIKOT - Grandes Exitos (200 - 2006)
DYEAR=1900
DGENRE=Rhythmic Soul
TTITLE0=Saluz y Rebeldia
TTITLE1=Hasta Siempre
TTITLE2=Stop Censura
TTITLE3=Ines
TTITLE4=Tu Disparas
TTITLE5=Kualquier dia
TTITLE6=Ni un Golpe Mas
TTITLE7=Bajo el Suelo
TTITLE8=Soy Preso
TTITLE9=Dspaldas al Mundo
TTITLE10=Tierra Quemada
TTITLE11=No pierdo el tiempo
TTITLE12=Stop Censura Remix
EXTD=
EXTT0=
EXTT1=
EXTT2=
EXTT3=
EXTT4=
EXTT5=
EXTT6=
EXTT7=
EXTT8=
EXTT9=
EXTT10=
EXTT11=
EXTT12=
PLAYORDER=
